# xmcd
#
# Track frame offsets: 
#        150
#        55276
#        78559
#        85649
#        109275
#        118360
#        132113
#        137805
#        148447
#        151057
#        161295
#        162886
#        175596
#        177416
#        188342
#        203180
#        205289
#        214086
#        216389
#        234609
#        242670
#        252381
#        261969
#        277561
#        287514
#
# Disc length: 4030 seconds
#
# Revision: 1
# Processed by: cddbd v1.5.2PL0 Copyright (c) Steve Scherf et al.
# Submitted via: ExactAudioCopy v0.99pb5
#
DISCID=6e0fbc19
DTITLE=Philharmonia Orchestra (Muti) - Rossini Ouvertures - CD 2
DYEAR=2002
DGENRE=Classical
TTITLE0=Tell - Ouverture
TTITLE1=Tell - Pas de six
TTITLE2=Tell - Danse
TTITLE3=Tell - Pas de soldats
TTITLE4=La boutiqe fantasque - Ouverture
TTITLE5=La boutiqe fantasque - Allegretto
TTITLE6=La boutiqe fantasque - Vivo
TTITLE7=La boutiqe fantasque - Tarantella
TTITLE8=La boutiqe fantasque - Vivo
TTITLE9=La boutiqe fantasque - Mazurka
TTITLE10=La boutiqe fantasque Lento
TTITLE11=La boutiqe fantasque - Moderato
TTITLE12=La boutiqe fantasque - Vivacissimo
TTITLE13=La boutiqe fantasque Danse cosaque
TTITLE14=La boutiqe fantasque - Allegretto brillante
TTITLE15=La boutiqe fantasque - Vivace
TTITLE16=La boutiqe fantasque - Cancan
TTITLE17=La boutiqe fantasque - Vivacissimo
TTITLE18=La boutiqe fantasque - Andantino mosso
TTITLE19=La boutiqe fantasque - Valse lente
TTITLE20=La boutiqe fantasque - Con brio
TTITLE21=La boutiqe fantasque - Allegretto
TTITLE22=La boutiqe fantasque - Nocturne
TTITLE23=La boutiqe fantasque - Galop
TTITLE24=La boutiqe fantasque - Allegro brillante
EXTD=
EXTT0=
EXTT1=
EXTT2=
EXTT3=
EXTT4=
EXTT5=
EXTT6=
EXTT7=
EXTT8=
EXTT9=
EXTT10=
EXTT11=
EXTT12=
EXTT13=
EXTT14=
EXTT15=
EXTT16=
EXTT17=
EXTT18=
EXTT19=
EXTT20=
EXTT21=
EXTT22=
EXTT23=
EXTT24=
PLAYORDER=
